<svg xmlns="http://www.w3.org/2000/svg" viewBox="0 0 1026.3192 305.69626"><defs/><defs><clipPath id="a" clipPathUnits="userSpaceOnUse"><path d="M 0,595.28 H 841.889 V 0 H 0 Z"/></clipPath></defs><g clip-path="url(#a)" transform="matrix(1.3333333,0,0,-1.3333333,-46.956399,572.64839)"><path fill="#8978a9" d="m 0,0 v 8.795 c 0,1.983 -1.256,2.654 -2.4,2.654 -1.147,0 -2.43,-0.671 -2.43,-2.654 V 0 h -3.632 v 14.55 h 3.548 v -1.341 c 0.95,1.005 2.291,1.506 3.631,1.506 1.45,0 2.624,-0.474 3.433,-1.282 C 3.324,12.258 3.631,10.89 3.631,9.3 V 0 Z" transform="translate(316.9336,239.6172)"/><path fill="#8978a9" d="M 0,0 C -0.389,0.865 -1.198,1.507 -2.43,1.507 -3.656,1.507 -4.467,0.865 -4.856,0 -5.08,-0.531 -5.164,-0.922 -5.191,-1.563 H 0.336 C 0.309,-0.922 0.224,-0.531 0,0 m -5.191,-4.049 c 0,-1.87 1.142,-3.239 3.18,-3.239 1.592,0 2.376,0.447 3.297,1.369 L 3.492,-8.07 c -1.481,-1.481 -2.903,-2.29 -5.53,-2.29 -3.435,0 -6.729,1.564 -6.729,7.457 0,4.745 2.57,7.425 6.337,7.425 4.051,0 6.339,-2.959 6.339,-6.952 v -1.619 z" transform="translate(332.5137,249.8096)"/><path fill="#8978a9" d="m 0,0 c -2.959,0 -4.218,2.094 -4.218,4.161 v 7.203 h -1.537 v 2.766 h 1.537 v 4.3 h 3.633 v -4.3 H 1.983 V 11.364 H -0.585 V 4.385 c 0,-0.84 0.389,-1.314 1.254,-1.314 H 1.983 V 0 Z" transform="translate(344.3271,239.6172)"/><path fill="#8978a9" d="M 0,0 H -2.988 L -6.031,9.131 -9.075,0 h -2.988 l -4.468,14.55 h 3.851 l 2.35,-8.993 2.957,8.993 h 2.654 l 2.986,-8.993 2.348,8.993 h 3.824 z" transform="translate(364.209,239.6172)"/><path fill="#8978a9" d="M 0,0 C -0.419,0.42 -0.978,0.644 -1.702,0.644 -2.429,0.644 -2.961,0.42 -3.379,0 c -0.754,-0.753 -0.837,-2.011 -0.837,-3.517 0,-1.509 0.083,-2.792 0.837,-3.547 0.418,-0.419 0.95,-0.643 1.677,-0.643 0.724,0 1.283,0.224 1.702,0.643 0.755,0.755 0.837,2.038 0.837,3.547 C 0.837,-2.011 0.755,-0.753 0,0 m 2.819,-9.187 c -0.892,-0.949 -2.373,-1.787 -4.521,-1.787 -2.152,0 -3.603,0.838 -4.496,1.787 -1.314,1.369 -1.649,3.016 -1.649,5.67 0,2.623 0.335,4.272 1.649,5.639 0.893,0.951 2.344,1.787 4.496,1.787 2.148,0 3.629,-0.836 4.521,-1.787 1.314,-1.367 1.649,-3.016 1.649,-5.639 0,-2.654 -0.335,-4.301 -1.649,-5.67" transform="translate(377.8057,250.4229)"/><path fill="#8978a9" d="m 0,0 c -0.559,0.56 -1.033,0.867 -1.926,0.867 -1.117,0 -2.345,-0.838 -2.345,-2.681 v -8.768 h -3.631 v 14.55 h 3.547 V 2.569 c 0.697,0.839 2.095,1.564 3.658,1.564 1.426,0 2.427,-0.362 3.435,-1.367 z" transform="translate(393.6387,250.1992)"/><path fill="#8978a9" d="M 0,0 -3.574,6.06 -5.108,4.328 V 0 H -8.74 v 19.882 h 3.632 V 8.6 l 4.83,5.95 H 4.105 L -1.088,8.684 4.498,0 Z" transform="translate(407.1816,239.6172)"/><path fill="#8978a9" d="m 414.05,254.167 h 3.632 v -14.55 h -3.632 z m -0.055,5.443 h 3.713 v -2.96 h -3.713 z"/><path fill="#8978a9" d="m 0,0 v 8.795 c 0,1.983 -1.256,2.654 -2.403,2.654 -1.144,0 -2.427,-0.671 -2.427,-2.654 V 0 h -3.631 v 14.55 h 3.547 v -1.341 c 0.947,1.005 2.289,1.506 3.628,1.506 1.454,0 2.626,-0.474 3.435,-1.282 C 3.324,12.258 3.629,10.89 3.629,9.3 V 0 Z" transform="translate(430.1914,239.6172)"/><path fill="#8978a9" d="m 0,0 c -2.152,0 -2.376,-1.844 -2.376,-3.771 0,-1.926 0.224,-3.797 2.376,-3.797 2.148,0 2.4,1.871 2.4,3.797 C 2.4,-1.844 2.148,0 0,0 m -0.365,-16.95 c -2.235,0 -3.771,0.446 -5.278,1.898 l 2.262,2.29 c 0.809,-0.781 1.621,-1.116 2.849,-1.116 2.177,0 2.932,1.535 2.932,3.015 v 1.48 c -0.951,-1.061 -2.038,-1.452 -3.463,-1.452 -1.423,0 -2.653,0.475 -3.462,1.284 -1.368,1.369 -1.48,3.239 -1.48,5.78 0,2.542 0.112,4.385 1.48,5.754 0.809,0.809 2.066,1.283 3.49,1.283 1.537,0 2.541,-0.418 3.547,-1.536 v 1.371 h 3.519 v -14.02 c 0,-3.49 -2.486,-6.031 -6.396,-6.031" transform="translate(443.1211,251.0664)"/><path fill="#8978a9" d="M 0,0 V -11.364 H -3.633 V 0 h -1.506 v 2.766 h 1.506 V 4.58 c 0,2.067 1.287,4.161 4.246,4.161 H 2.68 V 5.669 H 1.255 C 0.389,5.669 0,5.195 0,4.355 V 2.766 H 2.68 V 0 Z" transform="translate(463.7852,250.9814)"/><path fill="#8978a9" d="M 0,0 C -0.419,0.42 -0.979,0.644 -1.703,0.644 -2.431,0.644 -2.961,0.42 -3.378,0 c -0.755,-0.753 -0.839,-2.011 -0.839,-3.517 0,-1.509 0.084,-2.792 0.839,-3.547 0.417,-0.419 0.947,-0.643 1.675,-0.643 0.724,0 1.284,0.224 1.703,0.643 0.754,0.755 0.836,2.038 0.836,3.547 C 0.836,-2.011 0.754,-0.753 0,0 m 2.819,-9.187 c -0.893,-0.949 -2.373,-1.787 -4.522,-1.787 -2.151,0 -3.601,0.838 -4.495,1.787 -1.314,1.369 -1.648,3.016 -1.648,5.67 0,2.623 0.334,4.272 1.648,5.639 0.894,0.951 2.344,1.787 4.495,1.787 2.149,0 3.629,-0.836 4.522,-1.787 1.314,-1.367 1.648,-3.016 1.648,-5.639 0,-2.654 -0.334,-4.301 -1.648,-5.67" transform="translate(476.0391,250.4229)"/><path fill="#8978a9" d="m 0,0 c -0.558,0.56 -1.032,0.867 -1.927,0.867 -1.116,0 -2.344,-0.838 -2.344,-2.681 v -8.768 h -3.632 v 14.55 h 3.548 V 2.569 c 0.697,0.839 2.094,1.564 3.658,1.564 1.425,0 2.428,-0.362 3.435,-1.367 z" transform="translate(491.8721,250.1992)"/><path fill="#8978a9" d="m 0,0 c -2.959,0 -4.216,2.094 -4.216,4.161 v 7.203 h -1.537 v 2.766 h 1.537 v 4.3 h 3.63 v -4.3 H 1.983 V 11.364 H -0.586 V 4.385 c 0,-0.84 0.391,-1.314 1.256,-1.314 H 1.983 V 0 Z" transform="translate(507.7031,239.6172)"/><path fill="#8978a9" d="m 0,0 v 8.88 c 0,1.926 -1.229,2.569 -2.374,2.569 -1.145,0 -2.345,-0.671 -2.345,-2.569 V 0 h -3.632 v 19.882 h 3.632 v -6.673 c 0.976,1.005 2.206,1.506 3.49,1.506 3.185,0 4.857,-2.234 4.857,-5.304 L 3.628,0 Z" transform="translate(521.3311,239.6172)"/><path fill="#8978a9" d="M 0,0 C -0.389,0.865 -1.199,1.507 -2.426,1.507 -3.658,1.507 -4.468,0.865 -4.857,0 -5.08,-0.531 -5.164,-0.922 -5.192,-1.563 H 0.336 C 0.309,-0.922 0.225,-0.531 0,0 m -5.192,-4.049 c 0,-1.87 1.144,-3.239 3.182,-3.239 1.594,0 2.373,0.447 3.297,1.369 L 3.49,-8.07 c -1.478,-1.481 -2.902,-2.29 -5.526,-2.29 -3.436,0 -6.73,1.564 -6.73,7.457 0,4.745 2.569,7.425 6.34,7.425 4.048,0 6.336,-2.959 6.336,-6.952 v -1.619 z" transform="translate(536.9102,249.8096)"/><path fill="#8978a9" d="m 0,0 h -2.877 c -1.31,0 -2.037,-0.614 -2.037,-1.646 0,-1.006 0.67,-1.677 2.094,-1.677 1.006,0 1.648,0.084 2.292,0.698 C -0.139,-2.263 0,-1.676 0,-0.782 Z m 0.084,-6.144 v 1.257 c -0.978,-0.977 -1.898,-1.397 -3.573,-1.397 -1.65,0 -2.847,0.42 -3.714,1.286 -0.781,0.809 -1.201,1.982 -1.201,3.267 0,2.317 1.591,4.216 4.97,4.216 H 0 v 0.726 c 0,1.592 -0.781,2.291 -2.708,2.291 -1.396,0 -2.038,-0.336 -2.792,-1.201 l -2.318,2.26 c 1.424,1.564 2.821,2.01 5.25,2.01 4.078,0 6.2,-1.729 6.2,-5.137 v -9.578 z" transform="translate(558.0215,245.7607)"/><path fill="#8978a9" d="m 0,0 c -2.904,0 -6.506,1.564 -6.506,7.457 0,5.891 3.602,7.426 6.506,7.426 2.01,0 3.52,-0.612 4.803,-1.953 L 2.346,10.473 C 1.59,11.281 0.947,11.617 0,11.617 c -0.867,0 -1.537,-0.307 -2.066,-0.949 -0.561,-0.699 -0.811,-1.677 -0.811,-3.211 0,-1.537 0.25,-2.542 0.811,-3.239 C -1.537,3.575 -0.867,3.267 0,3.267 c 0.947,0 1.59,0.336 2.346,1.145 L 4.803,1.983 C 3.52,0.644 2.01,0 0,0" transform="translate(571.3438,239.4492)"/><path fill="#8978a9" d="m 0,0 c -2.961,0 -4.217,2.094 -4.217,4.161 v 7.203 H -5.75 v 2.766 h 1.533 v 4.3 h 3.632 v -4.3 H 1.983 V 11.364 H -0.585 V 4.385 c 0,-0.84 0.39,-1.314 1.255,-1.314 H 1.983 V 0 Z" transform="translate(583.5176,239.6172)"/><path fill="#8978a9" d="m 588.795,254.167 h 3.633 v -14.55 h -3.633 z m -0.055,5.443 h 3.713 v -2.96 h -3.713 z"/><path fill="#8978a9" d="m 0,0 h -2.848 l -5.361,14.55 h 3.824 l 2.961,-8.993 2.933,8.993 h 3.823 z" transform="translate(602.7559,239.6172)"/><path fill="#8978a9" d="M 0,0 C -0.39,0.865 -1.202,1.507 -2.429,1.507 -3.659,1.507 -4.468,0.865 -4.858,0 -5.081,-0.531 -5.165,-0.922 -5.194,-1.563 H 0.335 C 0.308,-0.922 0.223,-0.531 0,0 m -5.194,-4.049 c 0,-1.87 1.146,-3.239 3.182,-3.239 1.595,0 2.374,0.447 3.296,1.369 L 3.489,-8.07 c -1.478,-1.481 -2.904,-2.29 -5.527,-2.29 -3.436,0 -6.73,1.564 -6.73,7.457 0,4.745 2.57,7.425 6.339,7.425 4.049,0 6.338,-2.959 6.338,-6.952 v -1.619 z" transform="translate(618.0029,249.8096)"/><path fill="#8978a9" d="m 0,0 c -2.988,0 -4.245,2.094 -4.245,4.161 v 15.721 h 3.631 V 4.385 c 0,-0.866 0.363,-1.314 1.284,-1.314 H 2.067 V 0 Z" transform="translate(635.8467,239.6172)"/><path fill="#8978a9" d="M 0,0 C -0.39,0.865 -1.199,1.507 -2.431,1.507 -3.657,1.507 -4.468,0.865 -4.858,0 -5.081,-0.531 -5.165,-0.922 -5.192,-1.563 H 0.335 C 0.308,-0.922 0.224,-0.531 0,0 m -5.192,-4.049 c 0,-1.87 1.144,-3.239 3.181,-3.239 1.591,0 2.376,0.447 3.295,1.369 L 3.491,-8.07 c -1.48,-1.481 -2.904,-2.29 -5.529,-2.29 -3.436,0 -6.731,1.564 -6.731,7.457 0,4.745 2.571,7.425 6.338,7.425 4.051,0 6.34,-2.959 6.34,-6.952 v -1.619 z" transform="translate(648.1631,249.8096)"/><path fill="#8978a9" d="m 655.422,254.167 h 3.633 v -14.55 h -3.633 z m -0.055,5.443 h 3.715 v -2.96 h -3.715 z"/><path fill="#8978a9" d="m 0,0 c -2.291,0 -4.356,0.251 -6.198,2.095 l 2.373,2.374 c 1.202,-1.202 2.765,-1.368 3.883,-1.368 1.255,0 2.566,0.419 2.566,1.506 0,0.728 -0.39,1.229 -1.534,1.34 l -2.291,0.224 c -2.624,0.252 -4.245,1.397 -4.245,4.078 0,3.016 2.654,4.634 5.613,4.634 2.264,0 4.162,-0.389 5.557,-1.702 L 3.489,10.919 c -0.835,0.754 -2.122,0.977 -3.377,0.977 -1.453,0 -2.065,-0.67 -2.065,-1.396 0,-0.531 0.224,-1.145 1.506,-1.256 L 1.845,9.021 C 4.72,8.74 6.171,7.205 6.171,4.748 6.171,1.537 3.435,0 0,0" transform="translate(667.8779,239.4492)"/><path fill="#8978a9" d="m 0,0 v 1.341 c -0.947,-1.006 -2.288,-1.509 -3.629,-1.509 -1.451,0 -2.625,0.475 -3.434,1.285 -1.174,1.173 -1.48,2.54 -1.48,4.133 v 9.3 h 3.629 V 5.752 c 0,-1.983 1.258,-2.653 2.402,-2.653 1.145,0 2.431,0.67 2.431,2.653 V 14.55 H 3.547 V 0 Z" transform="translate(685.4688,239.6172)"/><path fill="#8978a9" d="m 0,0 c -0.558,0.56 -1.032,0.867 -1.927,0.867 -1.117,0 -2.344,-0.838 -2.344,-2.681 v -8.768 h -3.632 v 14.55 h 3.547 V 2.569 c 0.697,0.839 2.095,1.564 3.659,1.564 1.424,0 2.426,-0.362 3.434,-1.367 z" transform="translate(700.9951,250.1992)"/><path fill="#8978a9" d="M 0,0 C -0.39,0.865 -1.199,1.507 -2.429,1.507 -3.657,1.507 -4.468,0.865 -4.857,0 -5.081,-0.531 -5.165,-0.922 -5.192,-1.563 H 0.335 C 0.308,-0.922 0.223,-0.531 0,0 m -5.192,-4.049 c 0,-1.87 1.144,-3.239 3.181,-3.239 1.591,0 2.375,0.447 3.297,1.369 L 3.493,-8.07 c -1.482,-1.481 -2.905,-2.29 -5.531,-2.29 -3.436,0 -6.729,1.564 -6.729,7.457 0,4.745 2.569,7.425 6.338,7.425 4.051,0 6.338,-2.959 6.338,-6.952 v -1.619 z" transform="translate(712.9736,249.8096)"/><path fill="#8978a9" d="m 0,0 c -2.288,0 -4.355,0.251 -6.2,2.095 l 2.375,2.374 c 1.199,-1.202 2.763,-1.368 3.88,-1.368 1.258,0 2.571,0.419 2.571,1.506 0,0.728 -0.392,1.229 -1.535,1.34 L -1.2,6.171 c -2.625,0.252 -4.245,1.397 -4.245,4.078 0,3.016 2.654,4.634 5.614,4.634 2.262,0 4.16,-0.389 5.555,-1.702 L 3.491,10.919 c -0.838,0.754 -2.123,0.977 -3.379,0.977 -1.452,0 -2.068,-0.67 -2.068,-1.396 0,-0.531 0.225,-1.145 1.511,-1.256 L 1.842,9.021 C 4.72,8.74 6.171,7.205 6.171,4.748 6.171,1.537 3.437,0 0,0" transform="translate(731.4873,239.4492)"/><path fill="#8978a9" d="M 0,0 C -0.39,0.865 -1.2,1.507 -2.43,1.507 -3.656,1.507 -4.468,0.865 -4.858,0 -5.082,-0.531 -5.166,-0.922 -5.193,-1.563 H 0.335 C 0.308,-0.922 0.223,-0.531 0,0 m -5.193,-4.049 c 0,-1.87 1.145,-3.239 3.183,-3.239 1.59,0 2.374,0.447 3.295,1.369 L 3.492,-8.07 c -1.482,-1.481 -2.904,-2.29 -5.531,-2.29 -3.434,0 -6.729,1.564 -6.729,7.457 0,4.745 2.571,7.425 6.338,7.425 4.051,0 6.34,-2.959 6.34,-6.952 v -1.619 z" transform="translate(748.7441,249.8096)"/><path fill="#8978a9" d="m 0,0 c -2.903,0 -6.506,1.564 -6.506,7.457 0,5.891 3.603,7.426 6.506,7.426 2.01,0 3.518,-0.612 4.803,-1.953 L 2.346,10.473 C 1.592,11.281 0.951,11.617 0,11.617 -0.867,11.617 -1.537,11.31 -2.068,10.668 -2.624,9.969 -2.876,8.991 -2.876,7.457 -2.876,5.92 -2.624,4.915 -2.068,4.218 -1.537,3.575 -0.867,3.267 0,3.267 c 0.951,0 1.592,0.336 2.346,1.145 L 4.803,1.983 C 3.518,0.644 2.01,0 0,0" transform="translate(761.7852,239.4492)"/><path fill="#8978a9" d="m 0,0 c -2.957,0 -4.217,2.094 -4.217,4.161 v 7.203 h -1.535 v 2.766 h 1.535 v 4.3 h 3.632 v -4.3 H 1.984 V 11.364 H -0.585 V 4.385 c 0,-0.84 0.39,-1.314 1.257,-1.314 H 1.984 V 0 Z" transform="translate(773.959,239.6172)"/><path fill="#8978a9" d="M 0,0 C -0.42,0.42 -0.978,0.644 -1.702,0.644 -2.431,0.644 -2.958,0.42 -3.378,0 c -0.755,-0.753 -0.84,-2.011 -0.84,-3.517 0,-1.509 0.085,-2.792 0.84,-3.547 0.42,-0.419 0.947,-0.643 1.676,-0.643 0.724,0 1.282,0.224 1.702,0.643 0.755,0.755 0.839,2.038 0.839,3.547 C 0.839,-2.011 0.755,-0.753 0,0 m 2.819,-9.187 c -0.892,-0.949 -2.372,-1.787 -4.521,-1.787 -2.151,0 -3.604,0.838 -4.498,1.787 -1.311,1.369 -1.646,3.016 -1.646,5.67 0,2.623 0.335,4.272 1.646,5.639 0.894,0.951 2.347,1.787 4.498,1.787 2.149,0 3.629,-0.836 4.521,-1.787 1.314,-1.367 1.649,-3.016 1.649,-5.639 0,-2.654 -0.335,-4.301 -1.649,-5.67" transform="translate(786.3877,250.4229)"/><path fill="#8978a9" d="m 0,0 c -0.559,0.56 -1.031,0.867 -1.926,0.867 -1.117,0 -2.345,-0.838 -2.345,-2.681 v -8.768 h -3.631 v 14.55 h 3.546 V 2.569 c 0.698,0.839 2.094,1.564 3.659,1.564 1.424,0 2.43,-0.362 3.433,-1.367 z" transform="translate(802.2207,250.1992)"/><path fill="#443379" d="m 0,0 h -11.419 c -5.208,0 -8.089,-2.438 -8.089,-6.54 0,-3.991 2.66,-6.65 8.311,-6.65 3.99,0 6.54,0.332 9.091,2.771 C -0.557,-8.979 0,-6.651 0,-3.104 Z m 0.332,-24.386 v 4.988 c -3.88,-3.879 -7.539,-5.541 -14.187,-5.541 -6.541,0 -11.306,1.662 -14.744,5.098 -3.103,3.215 -4.763,7.87 -4.763,12.969 0,9.199 6.316,16.736 19.728,16.736 H 0 v 2.883 c 0,6.317 -3.105,9.088 -10.753,9.088 -5.541,0 -8.092,-1.33 -11.085,-4.765 l -9.197,8.978 c 5.65,6.207 11.193,7.98 20.836,7.98 16.181,0 24.607,-6.873 24.607,-20.395 v -38.019 z" transform="translate(339.3281,302.1455)"/><path fill="#443379" d="m 0,0 c -11.527,0 -25.827,6.207 -25.827,29.595 0,23.387 14.3,29.484 25.827,29.484 7.98,0 13.966,-2.439 19.063,-7.759 L 9.313,41.565 C 6.318,44.781 3.768,46.11 0,46.11 c -3.436,0 -6.096,-1.218 -8.201,-3.768 -2.219,-2.771 -3.215,-6.651 -3.215,-12.747 0,-6.095 0.996,-10.087 3.215,-12.858 2.105,-2.549 4.765,-3.768 8.201,-3.768 3.768,0 6.318,1.331 9.313,4.545 L 19.063,7.87 C 13.966,2.55 7.98,0 0,0" transform="translate(392.2012,277.0947)"/><path fill="#443379" d="m 0,0 c -11.752,0 -16.739,8.313 -16.739,16.515 v 28.598 h -6.096 v 10.972 h 6.096 v 17.07 H -2.331 V 56.085 H 7.868 V 45.113 H -2.331 V 17.402 c 0,-3.325 1.553,-5.209 4.988,-5.209 H 7.868 V 0 Z" transform="translate(440.5342,277.7598)"/><path fill="#443379" d="m 461.484,335.508 h 14.409 v -57.749 h -14.409 z m -0.223,21.615 h 14.741 v -11.75 h -14.741 z"/><path fill="#443379" d="m 0,0 h -11.305 l -21.281,57.749 h 15.184 l 11.748,-35.69 11.639,35.69 h 15.187 z" transform="translate(516.9043,277.7598)"/><path fill="#443379" d="m 0,0 c -1.553,3.436 -4.768,5.986 -9.645,5.986 -4.876,0 -8.09,-2.55 -9.642,-5.986 -0.887,-2.106 -1.221,-3.658 -1.331,-6.208 H 1.328 C 1.217,-3.658 0.886,-2.106 0,0 m -20.618,-16.072 c 0,-7.427 4.544,-12.858 12.637,-12.858 6.316,0 9.42,1.773 13.078,5.431 l 8.757,-8.534 c -5.875,-5.875 -11.528,-9.09 -21.948,-9.09 -13.633,0 -26.713,6.207 -26.713,29.595 0,18.844 10.2,29.485 25.162,29.485 16.073,0 25.162,-11.75 25.162,-27.6 v -6.429 z" transform="translate(577.4277,318.2173)"/><path fill="#443379" d="m 604.697,316.111 h 34.138 v -13.412 h -34.138 z"/><path fill="#443379" d="m 0,0 v 34.916 c 0,7.868 -4.986,10.529 -9.531,10.529 -4.544,0 -9.643,-2.661 -9.643,-10.529 V 0 h -14.41 v 57.749 h 14.077 v -5.321 c 3.769,3.99 9.087,5.986 14.408,5.986 5.766,0 10.42,-1.884 13.634,-5.099 C 13.19,48.66 14.41,43.229 14.41,36.911 V 0 Z" transform="translate(687.0547,277.7598)"/><path fill="#443379" d="m 0,0 c -1.552,3.436 -4.767,5.986 -9.645,5.986 -4.875,0 -8.089,-2.55 -9.642,-5.986 -0.887,-2.106 -1.219,-3.658 -1.331,-6.208 H 1.329 C 1.219,-3.658 0.887,-2.106 0,0 m -20.618,-16.072 c 0,-7.427 4.546,-12.858 12.638,-12.858 6.316,0 9.421,1.773 13.078,5.431 l 8.757,-8.534 c -5.875,-5.875 -11.527,-9.09 -21.947,-9.09 -13.635,0 -26.714,6.207 -26.714,29.595 0,18.844 10.199,29.485 25.161,29.485 16.073,0 25.162,-11.75 25.162,-27.6 v -6.429 z" transform="translate(748.9102,318.2173)"/><path fill="#443379" d="m 0,0 c -11.752,0 -16.74,8.313 -16.74,16.515 v 28.598 h -6.095 v 10.972 h 6.095 v 17.07 H -2.331 V 56.085 H 7.867 V 45.113 H -2.331 V 17.402 c 0,-3.325 1.553,-5.209 4.987,-5.209 H 7.867 V 0 Z" transform="translate(795.8008,277.7598)"/><path fill="#443379" d="m 0,0 c -54.752,0 -100.531,-38.387 -111.912,-89.714 l 16.797,-29.661 25.019,17.639 c 6.075,33.206 35.135,58.382 70.096,58.382 26.479,0 49.568,-14.448 61.86,-35.881 l 7.675,29.419 32.233,-12.011 C 82.666,-25.092 44.266,0 0,0" transform="translate(149.8535,429.4863)"/><path fill="#008e7d" d="m 0,0 -7.675,-29.418 c 5.984,-10.434 9.422,-22.513 9.422,-35.402 0,-26.425 -14.391,-49.474 -35.751,-61.784 l 29.535,-8.231 -10.813,-30.99 c 37.512,18.84 60.383,56.166 60.383,101.005 0,19.046 -4.651,37.004 -12.87,52.81 L 0,0" transform="translate(219.3887,379.6699)"/><path fill="#c1dcd8" d="m 0,0 c -10.467,-6.037 -22.602,-9.51 -35.553,-9.51 -39.368,0 -71.282,31.914 -71.282,71.283 0,4.407 0.421,8.715 1.187,12.9 l -25.02,-17.639 -16.797,29.661 c -1.779,-8.025 -2.724,-16.362 -2.724,-24.922 0,-63.312 51.325,-114.636 114.636,-114.636 19.628,0 38.102,4.935 54.253,13.631 l 10.814,30.99 z" transform="translate(185.4063,253.0771)"/></g></svg>