<?xml version="1.0" encoding="utf-8"?>
<!-- Generator: Adobe Illustrator 25.0.1, SVG Export Plug-In . SVG Version: 6.00 Build 0)  -->
<svg version="1.1" id="Layer_1" xmlns="http://www.w3.org/2000/svg" xmlns:xlink="http://www.w3.org/1999/xlink" x="0px" y="0px"
	 viewBox="0 0 50 50" style="enable-background:new 0 0 50 50;" xml:space="preserve">
<style type="text/css">
	.st0{fill:#008E7D;}
	.st1{fill:#FFFFFF;}
</style>
<g>
	<circle class="st0" cx="25" cy="25" r="25"/>
</g>
<g>
	<g>
		<g>
			<polygon class="st1" points="30.8,25.2 42.8,32.8 42.8,17.3 			"/>
		</g>
	</g>
	<g>
		<g>
			<polygon class="st1" points="7.2,17.3 7.2,32.8 19.2,25.2 			"/>
		</g>
	</g>
	<g>
		<g>
			<path class="st1" d="M40.6,12.8H9.4c-1.1,0-2,0.8-2.2,1.9L25,26.3l17.8-11.7C42.6,13.6,41.7,12.8,40.6,12.8z"/>
		</g>
	</g>
	<g>
		<g>
			<path class="st1" d="M28.8,26.5l-3.2,2.1c-0.2,0.1-0.4,0.2-0.6,0.2c-0.2,0-0.4-0.1-0.6-0.2l-3.2-2.1l-14,8.8
				c0.2,1.1,1,1.9,2.2,1.9h31.2c1.1,0,2-0.8,2.2-1.9L28.8,26.5z"/>
		</g>
	</g>
</g>
</svg>
