<?xml version="1.0" encoding="utf-8"?>
<!-- Generator: Adobe Illustrator 25.0.1, SVG Export Plug-In . SVG Version: 6.00 Build 0)  -->
<svg version="1.1" id="Layer_1" xmlns="http://www.w3.org/2000/svg" xmlns:xlink="http://www.w3.org/1999/xlink" x="0px" y="0px"
	 viewBox="0 0 50 50" style="enable-background:new 0 0 50 50;" xml:space="preserve">
<style type="text/css">
	.st0{fill:#008E7D;}
	.st1{fill:#FFFFFF;}
</style>
<g>
	<circle class="st0" cx="25" cy="25" r="25"/>
</g>
<g>
	<path class="st1" d="M25,8.2c-9.3,0-16.9,7.6-16.9,16.9c0,8.4,6.1,15.3,14.1,16.6V28.6h-4.1v-4.7h4.1v-3.5c0-4,2.5-6.2,6.1-6.2
		c1.7,0,3.2,0.1,3.6,0.2v4.2l-2.5,0c-2,0-2.3,0.9-2.3,2.3v3h4.7l-0.6,4.7h-4.1v13.2c8.3-1,14.8-8.1,14.8-16.7
		C41.9,15.7,34.3,8.2,25,8.2z"/>
</g>
</svg>
