<?xml version="1.0" encoding="utf-8"?>
<!-- Generator: Adobe Illustrator 25.0.1, SVG Export Plug-In . SVG Version: 6.00 Build 0)  -->
<svg version="1.1" id="Layer_1" xmlns="http://www.w3.org/2000/svg" xmlns:xlink="http://www.w3.org/1999/xlink" x="0px" y="0px"
	 viewBox="0 0 308 305.7" style="enable-background:new 0 0 308 305.7;" xml:space="preserve">
<style type="text/css">
	.st0{clip-path:url(#SVGID_2_);}
	.st1{fill:#443379;}
	.st2{fill:#008E7D;}
	.st3{fill:#C1DCD8;}
</style>
<g>
	<defs>
		<rect id="SVGID_1_" x="-47" y="-221.1" width="1122.5" height="793.7"/>
	</defs>
	<clipPath id="SVGID_2_">
		<use xlink:href="#SVGID_1_"  style="overflow:visible;"/>
	</clipPath>
	<g transform="matrix(1.3333333,0,0,-1.3333333,-46.956399,572.64839)" class="st0">
		<path class="st1" d="M149.9,429.5c-54.8,0-100.5-38.4-111.9-89.7l16.8-29.7l25,17.6c6.1,33.2,35.1,58.4,70.1,58.4
			c26.5,0,49.6-14.4,61.9-35.9l7.7,29.4l32.2-12C232.5,404.4,194.1,429.5,149.9,429.5"/>
		<path class="st2" d="M219.4,379.7l-7.7-29.4c6-10.4,9.4-22.5,9.4-35.4c0-26.4-14.4-49.5-35.8-61.8l29.5-8.2l-10.8-31
			c37.5,18.8,60.4,56.2,60.4,101c0,19-4.7,37-12.9,52.8L219.4,379.7"/>
		<path class="st3" d="M185.4,253.1c-10.5-6-22.6-9.5-35.6-9.5c-39.4,0-71.3,31.9-71.3,71.3c0,4.4,0.4,8.7,1.2,12.9l-25-17.6
			l-16.8,29.7c-1.8-8-2.7-16.4-2.7-24.9c0-63.3,51.3-114.6,114.6-114.6c19.6,0,38.1,4.9,54.3,13.6l10.8,31L185.4,253.1z"/>
	</g>
</g>
</svg>
