<?xml version="1.0" encoding="utf-8"?>
<!-- Generator: Adobe Illustrator 25.0.1, SVG Export Plug-In . SVG Version: 6.00 Build 0)  -->
<svg version="1.1" id="Layer_1" xmlns="http://www.w3.org/2000/svg" xmlns:xlink="http://www.w3.org/1999/xlink" x="0px" y="0px"
	 viewBox="0 0 50 50" style="enable-background:new 0 0 50 50;" xml:space="preserve">
<style type="text/css">
	.st0{fill:#008E7D;}
	.st1{fill:#FFFFFF;}
</style>
<g>
	<circle class="st0" cx="25" cy="25" r="25"/>
</g>
<g>
	<g id="post-linkedin">
		<path class="st1" d="M37.4,9.5H12.6c-1.7,0-3.1,1.4-3.1,3.1v24.8c0,1.7,1.4,3.1,3.1,3.1h24.8c1.7,0,3.1-1.4,3.1-3.1V12.6
			C40.5,10.9,39.1,9.5,37.4,9.5z M18.8,35.8h-4.6V21.9h4.6V35.8z M16.5,19.3c-1.5,0-2.8-1.2-2.8-2.8s1.2-2.8,2.8-2.8
			s2.8,1.2,2.8,2.8S18,19.3,16.5,19.3z M35.8,35.8h-4.6v-8.2c0-1.2-1.1-2.3-2.3-2.3c-1.2,0-2.3,1.1-2.3,2.3v8.2h-4.6V21.9h4.6v1.9
			c0.8-1.2,2.5-2.2,3.9-2.2c2.9,0,5.4,2.5,5.4,5.4V35.8z"/>
	</g>
</g>
</svg>
