<?xml version="1.0" encoding="utf-8"?>
<!-- Generator: Adobe Illustrator 25.0.1, SVG Export Plug-In . SVG Version: 6.00 Build 0)  -->
<svg version="1.1" id="Layer_1" xmlns="http://www.w3.org/2000/svg" xmlns:xlink="http://www.w3.org/1999/xlink" x="0px" y="0px"
	 viewBox="0 0 50 50" style="enable-background:new 0 0 50 50;" xml:space="preserve">
<style type="text/css">
	.st0{fill:#008E7D;}
	.st1{fill:#FFFFFF;}
</style>
<g>
	<circle class="st0" cx="25" cy="25" r="25"/>
</g>
<g>
	<g>
		<path class="st1" d="M9.7,36.9l3.1,3.1c3.2,3.2,11.7-0.3,19.3-7.9S43,16,40,12.8l-3.1-3.1c-1.1-1.1-3.1-1.1-4.3,0l-4.5,4.5
			c-1.6,1.6-1,4.3,1.1,5c1.4,0.5,2.4,2.1,1.9,3.5c-0.8,3.4-5.2,7.6-8.4,8.4c-1.4,0.3-3.1-0.5-3.5-1.9c-0.6-2.1-3.4-2.7-5-1.1
			l-4.5,4.5C8.6,33.7,8.6,35.6,9.7,36.9z"/>
	</g>
</g>
</svg>
