<?xml version="1.0" encoding="utf-8"?>
<!-- Generator: Adobe Illustrator 25.0.1, SVG Export Plug-In . SVG Version: 6.00 Build 0)  -->
<svg version="1.1" id="Layer_1" xmlns="http://www.w3.org/2000/svg" xmlns:xlink="http://www.w3.org/1999/xlink" x="0px" y="0px"
	 viewBox="0 0 50 50" style="enable-background:new 0 0 50 50;" xml:space="preserve">
<style type="text/css">
	.st0{fill:#008E7D;}
	.st1{fill:#FFFFFF;}
</style>
<g>
	<circle class="st0" cx="25" cy="25" r="25"/>
</g>
<g id="surface1">
	<path class="st1" d="M30.7,27.8c3.5-5,2.4-11.9-2.6-15.5s-11.9-2.4-15.5,2.6c-3.5,5-2.4,11.9,2.6,15.5c3.6,2.5,8.3,2.7,12.1,0.5
		l8.2,8.1c0.9,0.9,2.4,1,3.3,0.1c0.9-0.9,1-2.4,0.1-3.3c0,0-0.1-0.1-0.1-0.1L30.7,27.8z M21.6,28.5c-4,0-7.2-3.2-7.2-7.2
		c0-4,3.2-7.2,7.2-7.2c3.9,0,7.2,3.2,7.2,7.1C28.8,25.3,25.6,28.5,21.6,28.5C21.6,28.5,21.6,28.5,21.6,28.5z"/>
</g>
</svg>
