<?xml version="1.0" encoding="utf-8"?>
<!-- Generator: Adobe Illustrator 25.0.1, SVG Export Plug-In . SVG Version: 6.00 Build 0)  -->
<svg version="1.1" id="Layer_1" xmlns="http://www.w3.org/2000/svg" xmlns:xlink="http://www.w3.org/1999/xlink" x="0px" y="0px"
	 viewBox="0 0 50 50" style="enable-background:new 0 0 50 50;" xml:space="preserve">
<style type="text/css">
	.st0{fill:#008E7D;}
	.st1{fill:#FFFFFF;}
</style>
<g>
	<circle class="st0" cx="25" cy="25" r="25"/>
</g>
<g>
	<g>
		<path class="st1" d="M42.7,14c-1.3,0.6-2.7,1-4.2,1.1c1.5-0.9,2.7-2.3,3.2-4c-1.4,0.8-3,1.4-4.6,1.8c-1.3-1.4-3.2-2.3-5.3-2.3
			c-4,0-7.3,3.3-7.3,7.3c0,0.6,0,1.1,0.2,1.7c-6-0.3-11.4-3.2-15-7.6c-0.6,1.1-1,2.3-1,3.7c0,2.5,1.3,4.7,3.2,6
			c-1.2,0-2.3-0.4-3.3-0.9c0,0,0,0.1,0,0.1c0,3.5,2.5,6.5,5.8,7.1c-0.6,0.2-1.2,0.2-1.9,0.2c-0.5,0-0.9,0-1.4-0.1
			c0.9,2.9,3.6,5,6.8,5.1c-2.5,1.9-5.6,3.1-9,3.1c-0.6,0-1.2,0-1.7-0.1c3.2,2.1,7,3.3,11.1,3.3c13.4,0,20.7-11.1,20.7-20.7
			c0-0.3,0-0.6,0-0.9C40.5,16.8,41.7,15.5,42.7,14z"/>
	</g>
</g>
</svg>
