<?xml version="1.0" encoding="utf-8"?>
<!-- Generator: Adobe Illustrator 25.0.1, SVG Export Plug-In . SVG Version: 6.00 Build 0)  -->
<svg version="1.1" id="Layer_1" xmlns="http://www.w3.org/2000/svg" xmlns:xlink="http://www.w3.org/1999/xlink" x="0px" y="0px"
	 viewBox="0 0 50 50" style="enable-background:new 0 0 50 50;" xml:space="preserve">
<style type="text/css">
	.st0{fill:#008E7D;}
	.st1{fill:#FFFFFF;}
</style>
<g>
	<circle class="st0" cx="25" cy="25" r="25"/>
</g>
<path class="st1" d="M41.7,16.6c-0.4-1.5-1.6-2.7-3.1-3.1C35.9,12.8,25,12.8,25,12.8s-10.9,0-13.6,0.7C10,14,8.7,15.2,8.3,16.6
	C7.6,19.4,7.6,25,7.6,25s0,5.7,0.7,8.4c0.4,1.5,1.6,2.7,3.1,3.1c2.7,0.7,13.6,0.7,13.6,0.7s10.9,0,13.6-0.7c1.5-0.4,2.7-1.6,3.1-3.1
	c0.7-2.7,0.7-8.4,0.7-8.4S42.4,19.4,41.7,16.6z M21.5,30.2V19.8l9,5.2L21.5,30.2z"/>
</svg>
